<svg width="643" height="643" fill="none" xmlns="http://www.w3.org/2000/svg"><path d="M110.365 582.649S-4.604 425.255 66.641 304.281c71.244-120.974 212.742-37.949 239.684-150.847 26.942-112.898 125.282-131.404 218.543 9.773 93.261 141.177 70.949 337.511 21.566 419.442H110.365z" fill="#fff"/><path d="M50.565 582.841h541.869M159.541 436.095v146M159.541 417.783v11.998M495.444 582.417V388.115H159.541v22.891" stroke="#263238" stroke-linecap="round" stroke-linejoin="round"/><path d="M461.121 399.509h20.447v173.353M173.43 582.095V399.509h275.821M183.216 377.312h6.494M199.034 377.312h302.274v10.726H153.689v-10.726h25.386M554.201 372.014l-3.189 20.692M534.642 287.074h15.432a14.768 14.768 0 0111.205 5.155 14.793 14.793 0 012.992 5.558 14.79 14.79 0 01.399 6.301l-8.719 56.583M518.952 287.074h11.278M452.877 371.911l11.15-72.273a14.746 14.746 0 0114.583-12.513h32.304M442.808 437.253l5.015-32.587M499.894 478.842h15.354a28.294 28.294 0 0019.625-7.909M415.262 478.842h53.51M393.143 474.007a28.197 28.197 0 0015.817 4.835" stroke="#263238" stroke-linecap="round" stroke-linejoin="round"/><path d="M477.106 437.24h-85.879a10.548 10.548 0 00-7.457 3.088 10.548 10.548 0 00-3.088 7.457v2.752a28.161 28.161 0 006.095 17.567M542.768 443.824a10.572 10.572 0 00-9.773-6.571h-15.304M477.26 486.61h-36.741l-7.716-7.768" stroke="#263238" stroke-linecap="round" stroke-linejoin="round"/><path d="M451.077 486.609h22.055v25.849a2.341 2.341 0 01-2.34 2.34h-17.374a2.34 2.34 0 01-2.341-2.34v-25.849zM469.004 514.799h-13.799v31.751h13.799v-31.751zM398.904 566.097c22.968-15.303 56.34-19.547 56.34-19.547M477.208 561.532c-23.251-3.408-46.399 1.736-68.261 7.369M515.223 568.901a309.886 309.886 0 00-16.011-3.652M499.894 554.021a109.838 109.838 0 0125.424 12.076M469.004 546.55c2.906.398 5.787.913 8.668 1.504M401.605 583.407a8.655 8.655 0 100-17.31 8.655 8.655 0 000 17.31zM523.775 583.407a8.655 8.655 0 100-17.31 8.655 8.655 0 000 17.31zM513.281 461.198l6.79-45.962a9.99 9.99 0 018.539-8.449l31.545-4.269a4.887 4.887 0 004.218-4.848v0a4.897 4.897 0 00-4.886-4.9h-3.936l-31.249 4.823a17.421 17.421 0 00-14.622 14.943l-6.533 49.845a3.083 3.083 0 003.048 3.485v0" stroke="#263238" stroke-linecap="round" stroke-linejoin="round"/><path d="M560.155 402.518l-8.204 43.647c1.088 0 2.131.432 2.901 1.201a4.105 4.105 0 011.201 2.901v8.334a10.413 10.413 0 01-10.416 10.416h-38.349" stroke="#263238" stroke-linecap="round" stroke-linejoin="round"/><path d="M554.716 403.2l-8.539 41.975h-22.403M391.329 412.472l-2.289 17.515M399.328 431.736l2.431-16.499a9.994 9.994 0 018.539-8.449l31.545-4.27" stroke="#263238" stroke-linecap="round" stroke-linejoin="round"/><path d="M344.263 125.308H85.673v457.533h258.59V125.308z" fill="#F5F5F5" stroke="#263238" stroke-linecap="round" stroke-linejoin="round"/><path d="M329.499 401.708H100.321M100.321 307.02h229.178" stroke="#263238" stroke-miterlimit="10"/><path d="M174.935 182.535h-74.614v110.03h74.614v-110.03z" fill="#06F" stroke="#263238" stroke-linecap="round" stroke-linejoin="round"/><path d="M168.749 292.578v-35.584a86.618 86.618 0 00-32.008-5.723c-13.465.142-25.386 2.572-31.842 5.414v35.893h63.85z" fill="#06F" stroke="#263238" stroke-linecap="round" stroke-linejoin="round"/><path d="M132.87 292.578h8.591l-2.084-26.466 3.074-6.61s-4.977-1.775-8.822 0l1.967 6.61-2.726 26.466z" fill="#263238"/><path d="M146.977 247.053l5.723 4.205-7.099 17.143-7.973-8.899-8.809 8.899-7.896-17.143 5.723-4.205h20.331z" fill="#06F" stroke="#263238" stroke-linecap="round" stroke-linejoin="round"/><path d="M148.649 249.137s-6.16 9.002-11.021 9.156c-3.434.09-12.269-8.449-12.269-8.449 2.392-2.148 2.572-6.109 2.187-9.234a27.191 27.191 0 00-.901-4.539h20.332a17.268 17.268 0 00-.72 9.002 6.69 6.69 0 002.392 4.064z" fill="#fff" stroke="#263238" stroke-linecap="round" stroke-linejoin="round"/><path d="M146.257 245.085c-14.686 3.858-17.592-4.539-17.592-4.539h-1.119a27.302 27.302 0 00-.9-4.54h20.331a17.268 17.268 0 00-.72 9.079zM152.636 221.539s9.748-31.173-25.99-22.711c0 0-2.919-1.517-4.707-.823-1.787.694-3.511 13.284-.476 24.923l31.173-1.389z" fill="#263238"/><path d="M151.402 221.809s1.633-1.787 2.443-1.196a3.866 3.866 0 011.286 3.755c-.437 1.505-2.341 4.141-2.482 5.672-.141 1.53-1.132 3.279-2.212 2.263-1.08-1.016.965-10.494.965-10.494zM122.171 221.809s-1.633-1.787-2.431-1.196a3.866 3.866 0 00-1.286 3.755c.437 1.505 2.341 4.141 2.495 5.672.154 1.53 1.132 3.279 2.199 2.263s-.977-10.494-.977-10.494z" fill="#fff" stroke="#263238" stroke-linecap="round" stroke-linejoin="round"/><path d="M136.47 201.246c20.576 0 15.69 27.418 11.896 36.227-1.286 3.086-8.218 7.137-11.574 7.137-3.099 0-10.198-4.848-11.458-7.716-3.807-8.873-8.488-35.648 11.136-35.648z" fill="#fff" stroke="#263238" stroke-linecap="round" stroke-linejoin="round"/><path d="M139.956 218.17s5.363-1.646 7.022 1.659" stroke="#263238" stroke-linecap="round" stroke-linejoin="round"/><path d="M143.93 222.684c0 .63-.322 1.144-.721 1.144-.398 0-.72-.514-.72-1.144 0-.631.322-1.145.72-1.145.399 0 .721.514.721 1.145z" fill="#263238"/><path d="M133.667 218.17s-5.363-1.646-7.021 1.659" stroke="#263238" stroke-linecap="round" stroke-linejoin="round"/><path d="M129.706 222.684c0 .63.309 1.144.707 1.144.399 0 .721-.514.721-1.144 0-.631-.322-1.145-.721-1.145-.398 0-.707.514-.707 1.145z" fill="#263238"/><path d="M125.244 209.489c-1.093 1.402 0 5.71.296 7.472.296 1.762-2.405 2.945-2.083 7.407l-1.042 1.531s-2.906-7.138-2.173-13.285c.733-6.147 4.603-8.526 4.603-8.526s1.762-5.298 12.127-5.26c11.163 0 12.295 6.083 12.295 6.083s7.561 5.054 1.967 21.502l-1.222-2.045a9.177 9.177 0 00-1.414-6.237c-.965-1.427.591-5.71.231-7.896s-22.479-2.135-23.585-.746z" fill="#263238"/><path d="M138.04 221.539s.308 6.327 1.208 8.115c.901 1.787-2.263 2.07-3.613 1.016" stroke="#263238" stroke-linecap="round" stroke-linejoin="round"/><path d="M132.304 234.052a4.064 4.064 0 001.916 2.456c2.12.507 4.336.454 6.43-.154a4.325 4.325 0 001.209-2.148" fill="#fff"/><path d="M132.304 234.052a4.064 4.064 0 001.916 2.456c2.12.507 4.336.454 6.43-.154a4.325 4.325 0 001.209-2.148M131.854 233.949c3.505.756 7.131.756 10.636 0" stroke="#263238" stroke-linecap="round" stroke-linejoin="round"/><path d="M115.985 253.393l-15.664 4.334v34.838h35.584l-19.92-39.172zM174.935 258.717l-19.676-6.224-16.435 40.072h36.111v-33.848z" fill="#5A5A5A" stroke="#263238" stroke-linecap="round" stroke-linejoin="round"/><path d="M145.717 292.577l11.587-13.49-7.163-6.867 10.982-6.108-3.781-12.629-4.642-2.225-14.095 41.319h7.112zM117.117 280.476l11.535 12.101h7.69l-15.419-41.319-4.938 2.135-3.704 11.728 11.201 8.887-6.365 6.468z" fill="#BFBFBF" stroke="#263238" stroke-linecap="round" stroke-linejoin="round"/><path d="M172.684 142.257v2.302c0 2.842-1.376 4.386-4.153 4.386h-1.286v6.661h-2.778v-17.734h4.102c2.739 0 4.115 1.543 4.115 4.385zm-5.504-1.852v6.006h1.286c.888 0 1.363-.411 1.363-1.672v-2.662c0-1.286-.475-1.672-1.363-1.672h-1.286zM179.796 155.606a5.34 5.34 0 01-.257-2.173v-2.791c0-1.646-.553-2.25-1.813-2.25h-.965v7.214h-2.79v-17.734h4.205c2.881 0 4.128 1.35 4.128 4.077v1.401a3.482 3.482 0 01-1.826 3.563c1.389.578 1.852 1.903 1.852 3.742v2.739a5.329 5.329 0 00.283 2.212h-2.817zm-3.035-15.188v5.44h1.081c1.041 0 1.671-.45 1.671-1.865v-1.761c0-1.286-.424-1.827-1.414-1.827l-1.338.013zM183.898 142.128c0-2.829 1.492-4.449 4.231-4.449 2.74 0 4.218 1.62 4.218 4.449v9.221c0 2.829-1.491 4.449-4.218 4.449-2.726 0-4.231-1.62-4.231-4.449v-9.221zm2.791 9.388c0 1.286.553 1.749 1.44 1.749.888 0 1.441-.476 1.441-1.749v-9.568c0-1.286-.553-1.749-1.441-1.749-.887 0-1.44.489-1.44 1.749v9.568zM196.964 145.755h3.653v2.572h-3.588v7.279h-2.842v-17.734h7.368v2.572h-4.578l-.013 5.311zM202.893 137.872h2.777v17.734h-2.777v-17.734zM207.702 137.872h2.778v15.162h4.591v2.572h-7.369v-17.734zM219.071 145.318h3.858v2.572h-3.858v5.144h4.81v2.572h-7.601v-17.734h7.601v2.572h-4.81v4.874zM229.525 137.872h4.411c2.778 0 4.141 1.543 4.141 4.385v9.002c0 2.83-1.363 4.373-4.141 4.373h-4.411v-17.76zm2.791 2.572v12.59h1.569c.887 0 1.415-.45 1.415-1.71v-9.221c0-1.286-.528-1.723-1.415-1.723l-1.569.064zM248.842 155.606h-2.804l-.488-3.215h-3.408l-.489 3.215h-2.572l2.842-17.721H246l2.842 17.721zm-6.353-5.62h2.688l-1.286-9.002-1.402 9.002zM248.365 137.872h8.604v2.572h-2.907v15.162h-2.79v-15.201h-2.907v-2.533zM266.202 155.606h-2.816l-.476-3.215h-3.421l-.476 3.215h-2.572l2.83-17.721h4.076l2.855 17.721zm-6.353-5.62h2.675l-1.286-9.002-1.389 9.002z" fill="#263238"/><path d="M100.386 169.366h229.165" stroke="#263238" stroke-linecap="round" stroke-linejoin="round"/><path d="M190.007 188.18h56.018a2.312 2.312 0 002.294-3.234 2.318 2.318 0 00-2.294-1.382h-56.018a2.314 2.314 0 000 4.616zM267.206 199.433h-77.16a2.314 2.314 0 000 4.616h77.16a2.312 2.312 0 002.142-2.308 2.317 2.317 0 00-2.142-2.308zM224.857 215.315h-34.85a2.314 2.314 0 000 4.616h34.85a2.317 2.317 0 001.747-.611 2.308 2.308 0 00.74-1.697 2.304 2.304 0 00-.74-1.697 2.32 2.32 0 00-1.747-.611zM267.206 231.197h-77.16a2.314 2.314 0 000 4.617h77.16a2.318 2.318 0 002.142-2.309 2.312 2.312 0 00-2.142-2.308zM235.441 247.066h-45.434a2.314 2.314 0 000 4.617h45.434a2.328 2.328 0 001.747-.612 2.304 2.304 0 00.74-1.697 2.32 2.32 0 00-.74-1.696 2.3 2.3 0 00-.81-.488 2.294 2.294 0 00-.937-.124z" fill="#263238"/><path d="M212.731 265.263h-25.026v25.026h25.026v-25.026zM251.311 265.263h-25.026v25.026h25.026v-25.026zM289.891 265.263h-25.026v25.026h25.026v-25.026z" fill="#BFBFBF" stroke="#263238" stroke-linecap="round" stroke-linejoin="round"/><path d="M138.786 368.645c12.33 0 22.325-9.996 22.325-22.325 0-12.33-9.995-22.325-22.325-22.325s-22.325 9.995-22.325 22.325c0 12.329 9.995 22.325 22.325 22.325z" stroke="#263238" stroke-width="5" stroke-miterlimit="10"/><path d="M161.124 346.32a22.333 22.333 0 01-13.79 20.637 22.333 22.333 0 01-24.343-4.842 22.339 22.339 0 01-4.842-24.344 22.333 22.333 0 0120.637-13.789" stroke="#06F" stroke-width="5" stroke-linecap="round" stroke-linejoin="round"/><path d="M156.211 381.26h-34.838a2.328 2.328 0 00-1.747.612 2.304 2.304 0 00-.74 1.697 2.303 2.303 0 00.74 1.696 2.3 2.3 0 00.81.488c.3.106.619.148.937.124h34.838a2.308 2.308 0 002.294-1.383 2.32 2.32 0 00-.547-2.622 2.308 2.308 0 00-1.747-.612z" fill="#263238"/><path d="M212.422 368.645c12.329 0 22.325-9.996 22.325-22.325 0-12.33-9.996-22.325-22.325-22.325-12.33 0-22.325 9.995-22.325 22.325 0 12.329 9.995 22.325 22.325 22.325z" stroke="#263238" stroke-width="5" stroke-miterlimit="10"/><path d="M228.215 362.099a22.328 22.328 0 01-36.406-7.247 22.337 22.337 0 01-1.593-10.729 22.335 22.335 0 0111.686-17.501 22.335 22.335 0 0110.52-2.64" stroke="#06F" stroke-width="5" stroke-linecap="round" stroke-linejoin="round"/><path d="M229.847 381.26h-34.85a2.315 2.315 0 000 4.617h34.85a2.317 2.317 0 002.488-2.308 2.321 2.321 0 00-.74-1.697 2.317 2.317 0 00-1.748-.612z" fill="#263238"/><path d="M286.058 368.645c12.33 0 22.325-9.996 22.325-22.325 0-12.33-9.995-22.325-22.325-22.325-12.329 0-22.325 9.995-22.325 22.325 0 12.329 9.996 22.325 22.325 22.325z" stroke="#263238" stroke-width="5" stroke-miterlimit="10"/><path d="M286.059 368.645a22.338 22.338 0 010-44.663" stroke="#06F" stroke-width="5" stroke-linecap="round" stroke-linejoin="round"/><path d="M303.497 381.26h-34.851a2.318 2.318 0 00-2.142 2.309 2.314 2.314 0 002.142 2.308h34.851a2.313 2.313 0 002.142-2.308 2.317 2.317 0 00-2.142-2.309z" fill="#263238"/><path d="M143.467 415.854h-43.081v43.081h43.081v-43.081z" fill="#BFBFBF" stroke="#263238" stroke-linecap="round" stroke-linejoin="round"/><path d="M156.571 420.522h133.178a2.304 2.304 0 002.294-1.383 2.304 2.304 0 000-1.851 2.322 2.322 0 00-1.356-1.26 2.317 2.317 0 00-.938-.123H156.571a2.314 2.314 0 000 4.617zM310.929 431.736h-154.32a2.314 2.314 0 000 4.617h154.32a2.315 2.315 0 000-4.617zM307.162 447.605H156.571a2.318 2.318 0 00-2.142 2.308 2.315 2.315 0 002.142 2.309h150.591a2.315 2.315 0 100-4.617zM310.929 463.487h-154.32a2.314 2.314 0 000 4.617h154.32a2.315 2.315 0 000-4.617zM189.145 479.369h-32.574a2.318 2.318 0 00-2.142 2.309 2.314 2.314 0 002.142 2.308h32.574a2.317 2.317 0 002.488-2.308 2.321 2.321 0 00-.74-1.697 2.317 2.317 0 00-1.748-.612z" fill="#263238"/><path d="M143.467 499.443h-43.081v43.081h43.081v-43.081z" fill="#BFBFBF" stroke="#263238" stroke-linecap="round" stroke-linejoin="round"/><path d="M156.571 504.112h133.178a2.3 2.3 0 001.747-.612 2.303 2.303 0 00.547-2.622 2.304 2.304 0 00-1.356-1.259 2.318 2.318 0 00-.938-.124H156.571a2.318 2.318 0 00-2.142 2.309 2.314 2.314 0 002.142 2.308zM310.929 515.326h-154.32a2.312 2.312 0 00-2.142 2.308 2.317 2.317 0 002.142 2.308h154.32a2.313 2.313 0 000-4.616zM307.162 531.195H156.571a2.314 2.314 0 000 4.617h150.591a2.333 2.333 0 001.747-.612 2.321 2.321 0 00.547-2.622 2.323 2.323 0 00-1.357-1.259 2.298 2.298 0 00-.937-.124zM310.929 547.077h-154.32a2.318 2.318 0 00-2.142 2.308 2.315 2.315 0 002.142 2.309h154.32a2.315 2.315 0 000-4.617zM189.145 562.959h-32.574a2.318 2.318 0 00-2.142 2.308 2.317 2.317 0 002.142 2.309h32.574a2.318 2.318 0 002.488-2.309 2.32 2.32 0 00-.74-1.696 2.317 2.317 0 00-1.748-.612z" fill="#263238"/><path d="M361.018 127.764l10.88 15.933-10.121 7.716-9.053-13.49" fill="#fff"/><path d="M361.018 127.764l10.88 15.933-10.121 7.716-9.053-13.49" stroke="#263238" stroke-linecap="round" stroke-linejoin="round"/><path d="M374.895 144.327l-8.372-11.342-12.255 9.233 6.07 11.279 14.557-9.17z" fill="#06F" stroke="#263238" stroke-linecap="round" stroke-linejoin="round"/><path d="M446.165 202.686l-.283 37.641s-4.565-2.263-11.098-5.658c-11.767-6.134-29.9-15.921-39.056-22.672a24.443 24.443 0 01-5.144-4.656c-5.929-8.474-35.146-58.474-35.146-58.474l15.65-11.265 28.292 41.743 6.944 10.288.643.219 39.198 12.834z" fill="#5A5A5A"/><path opacity=".3" d="M439.812 217.617l-5.067 17.052c-11.767-6.134-29.899-15.92-39.056-22.672 17.979 3.421 44.123 5.62 44.123 5.62zM406.968 189.788c-5.555 1.479-7.279 5.144-7.279 5.144-2.572-6.829-1.787-12.063-.308-15.599l6.944 10.288.643.167z" fill="#000" fill-opacity=".7"/><path d="M446.165 202.686l-.283 37.641s-4.565-2.263-11.098-5.658c-11.767-6.134-29.9-15.921-39.056-22.672a24.443 24.443 0 01-5.144-4.656c-5.929-8.474-35.146-58.474-35.146-58.474l15.65-11.265 28.292 41.743 6.944 10.288.643.219 39.198 12.834z" stroke="#263238" stroke-linecap="round" stroke-linejoin="round"/><path d="M361.623 130.799a7.525 7.525 0 00.771-2.932 12.622 12.622 0 00-.385-4.064 14.259 14.259 0 00-1.608-3.858 22.452 22.452 0 01-1.607-3.408 34.361 34.361 0 01-.811-2.353 42.448 42.448 0 01-1.157-4.784s-2.572-.862-2.855 1.633a7.513 7.513 0 00.09 2.058c.206 1.157.579 2.353.797 3.318.194.549.23 1.141.103 1.71a2.663 2.663 0 01-.36.591l-.154.206a3.084 3.084 0 01-1.183.875c-.2.084-.413.132-.63.141a.341.341 0 01-.168 0 2.096 2.096 0 01-.475 0 8.73 8.73 0 01-2.405-.9 25.369 25.369 0 01-3.228-2.006c-.386-.296-.759-.579-1.119-.875a33.761 33.761 0 01-2.572-2.314 43.693 43.693 0 00-1.89-1.801 37.514 37.514 0 00-1.903-1.595c-1.827-1.376-3.498-2.083-4.077-.668-.579 1.414.116 1.839 1.582 3.202a51.978 51.978 0 011.839 1.775 34.855 34.855 0 013.356 4.115l.399.566-.54.745c.09.142-.232 0-.849-.257a40.723 40.723 0 01-4.643-2.726 56.225 56.225 0 01-2.07-1.44c-.694-.502-1.286-.939-1.852-1.428-2.971-2.43-3.665.36-3.176 1.595a9.966 9.966 0 002.945 2.688l2.07 1.53.965.759a222.999 222.999 0 013.433 2.79l.36.283-.308 1.17-.553-.141a27.673 27.673 0 01-4.681-1.633 20.73 20.73 0 01-2.418-1.286c-1.157-.605-1.788-.81-2.572-.116-.785.694 0 1.993 1.286 3.099a13.148 13.148 0 003.421 2.071c.223.084.45.157.681.218 1.161.378 2.268.905 3.292 1.569l.631.373.218.952-1.029-.103a27.416 27.416 0 01-3.215-.592 25.03 25.03 0 00-2.572-.565 1.36 1.36 0 00-1.453.514c-.501.746.283 1.569 1.479 2.25.728.396 1.495.715 2.289.952a7.176 7.176 0 001.801.347c1.143.146 2.265.427 3.343.836l1.286.476c1.595.579 3.061 1.183 3.562 1.389l.193.077c1.055.695 1.981 1.286 2.804 1.71a14.898 14.898 0 006.327 2.058 4.306 4.306 0 002.803-1.093" fill="#fff"/><path d="M361.623 130.799a7.525 7.525 0 00.771-2.932 12.622 12.622 0 00-.385-4.064 14.259 14.259 0 00-1.608-3.858 22.452 22.452 0 01-1.607-3.408 34.361 34.361 0 01-.811-2.353 42.448 42.448 0 01-1.157-4.784s-2.572-.862-2.855 1.633a7.513 7.513 0 00.09 2.058c.206 1.157.579 2.353.797 3.318.194.549.23 1.141.103 1.71a2.663 2.663 0 01-.36.591l-.154.206a3.084 3.084 0 01-1.183.875c-.2.084-.413.132-.63.141a.341.341 0 01-.168 0 2.096 2.096 0 01-.475 0 8.73 8.73 0 01-2.405-.9v0a25.369 25.369 0 01-3.228-2.006v0c-.386-.296-.759-.579-1.119-.875a33.761 33.761 0 01-2.572-2.314 43.693 43.693 0 00-1.89-1.801 37.514 37.514 0 00-1.903-1.595c-1.827-1.376-3.498-2.083-4.077-.668-.579 1.414.116 1.839 1.582 3.202a51.978 51.978 0 011.839 1.775 34.855 34.855 0 013.356 4.115v0l.399.566-.54.745c.09.142-.232 0-.849-.257a40.723 40.723 0 01-4.643-2.726 56.225 56.225 0 01-2.07-1.44c-.694-.502-1.286-.939-1.852-1.428-2.971-2.43-3.665.36-3.176 1.595a9.966 9.966 0 002.945 2.688l2.07 1.53.965.759a222.999 222.999 0 013.433 2.79l.36.283-.308 1.17-.553-.141a27.673 27.673 0 01-4.681-1.633 20.73 20.73 0 01-2.418-1.286c-1.157-.605-1.788-.81-2.572-.116-.785.694 0 1.993 1.286 3.099a13.148 13.148 0 003.421 2.071v0c.223.084.45.157.681.218 1.161.378 2.268.905 3.292 1.569l.631.373.218.952-1.029-.103a27.416 27.416 0 01-3.215-.592v0a25.03 25.03 0 00-2.572-.565 1.36 1.36 0 00-1.453.514c-.501.746.283 1.569 1.479 2.25.728.396 1.495.715 2.289.952a7.176 7.176 0 001.801.347c1.143.146 2.265.427 3.343.836l1.286.476c1.595.579 3.061 1.183 3.562 1.389l.193.077c1.055.695 1.981 1.286 2.804 1.71a14.898 14.898 0 006.327 2.058 4.306 4.306 0 002.803-1.093M352.442 120.009s-3.46 4.244-.605 8.308M416.535 216.292s4.385 8.128 15.754 15.265M406.376 189.569s-9.002.669-6.172 9.439" stroke="#263238" stroke-linecap="round" stroke-linejoin="round"/><path d="M558.677 545.097s-24.73 21.103-37.628 24.524c-12.899 3.42-9.221 13.143-9.221 13.143h30.092l12.86-2.778v2.855h7.986s7.099-3.64 5.337-21.862c-.064-1.119-9.426-15.882-9.426-15.882zM291.189 551.527s-20.872 14.673-33.77 18.094c-12.899 3.42-9.221 13.142-9.221 13.142h30.092l12.86-2.777v2.855h7.986s7.099-3.64 5.337-21.862a63.948 63.948 0 00-.424-3.511c-3.022-21.206-12.86-5.941-12.86-5.941z" fill="#263238"/><path d="M540.827 561.725s-77.52-62.667-81.944-70.808c-4.424-8.14-13.207-82.677-13.207-82.677-1.132.798-73.791 52.379-77.16 57.382-.231.347-.707 1.093-1.402 2.199-9.619 15.239-60.352 97.736-60.352 97.736a28.921 28.921 0 01-22.389-9.542l52.263-112.641 76.594-74.897 1.145-1.131 7.304-29.128 65.715-8.038s5.658 20.846 8.68 37.191c.134 1.032.198 2.072.193 3.112.335 18.339-4.912 100.63-2.186 107.536 2.932 7.471 65.47 66.152 65.47 66.152.669 13.284-18.724 17.554-18.724 17.554z" fill="#757575"/><path opacity=".3" d="M445.677 408.241c-1.132.797-73.791 52.378-77.16 57.381-.232.347-.708 1.093-1.402 2.199-2.804-18.506 49.434-57.69 49.434-57.69l-10.597-5.478 20.859-3.074c-7.227-3.344-4.835-12.461-4.835-12.461l23.701 19.123zM449.984 378.431l3.447 5.144c-20.422-4.514-33.192-10.751-40.201-15.072l1.145-1.132 7.304-29.153 65.715-8.038s5.659 20.846 8.681 37.191a23.47 23.47 0 01.193 3.112c-17.4 6.765-46.284 7.948-46.284 7.948z" fill="#000" fill-opacity=".7"/><path d="M540.827 561.725s-77.52-62.667-81.944-70.808c-4.424-8.14-13.207-82.677-13.207-82.677-1.132.798-73.791 52.379-77.16 57.382-.231.347-.707 1.093-1.402 2.199-9.619 15.239-60.352 97.736-60.352 97.736a28.921 28.921 0 01-22.389-9.542l52.263-112.641 76.594-74.897 1.145-1.131 7.304-29.128 65.715-8.038s5.658 20.846 8.68 37.191c.134 1.032.198 2.072.193 3.112.335 18.339-4.912 100.63-2.186 107.536 2.932 7.471 65.47 66.152 65.47 66.152.669 13.284-18.724 17.554-18.724 17.554z" stroke="#263238" stroke-linecap="round" stroke-linejoin="round"/><path d="M503.34 272.902c-3.678 20.691-18.441 45.936-18.441 45.936l3.472 10.815 9.311 28.922-50.681 15.098-9.221-17.323-8.5 16.062-17.259-6.918 1.415-7.279 3.267-16.847c-.078-.951-.142-1.954-.219-2.983-2.122-31.301-1.903-95.537 27.327-136.316 0 0 43.39 6.044 59.272 54.565 1.44 4.514 1.325 10.198.257 16.268z" fill="#5A5A5A"/><path opacity=".3" d="M484.899 318.838l3.472 10.815c-8.642 7.986-19.058 17.644-20.048 18.853-1.286 1.556-36.806 7.008-54.926 9.709l3.267-16.846c-.077-.952-.142-1.955-.219-2.984l73.521-60.609 13.374-4.874c-3.678 20.692-18.441 45.936-18.441 45.936z" fill="#000" fill-opacity=".7"/><path d="M503.34 272.902c-3.678 20.691-18.441 45.936-18.441 45.936l3.472 10.815 9.311 28.922-50.681 15.098-9.221-17.323-8.5 16.062-17.259-6.918 1.415-7.279 3.267-16.847c-.078-.951-.142-1.954-.219-2.983-2.122-31.301-1.903-95.537 27.327-136.316 0 0 43.39 6.044 59.272 54.565 1.44 4.514 1.325 10.198.257 16.268z" stroke="#263238" stroke-linecap="round" stroke-linejoin="round"/><path d="M434.269 284.849s71.142-57.639 44.881-66.692c-23.649-8.166-53.87 10.185-44.881 66.692z" fill="#06F" stroke="#263238" stroke-linecap="round" stroke-linejoin="round"/><path d="M459.757 238.746l-9.773 4.231a144.538 144.538 0 00-9.542 39.711l-7.536 9.529-2.096-9.529s3.678-28.845 16.165-40.625l3.022-11.458 11.805-6.044-2.045 14.185z" fill="#263238"/><path d="M435.015 281.197s56.134-39.275 43.184-65.586c0 0 15.368-.399 8.874 37.294l-18.75 5.465 5.234 10.481s-21.116 4.269-40.651 23.341l-7.626-44.869 5.517-4.076-3.241-6.893s19.406-21.592 37.976-19.779c0 0-22.119 9.195-27.855 26.697-5.735 17.503-2.662 37.925-2.662 37.925z" fill="#BFBFBF" stroke="#263238" stroke-linecap="round" stroke-linejoin="round"/><path d="M467.178 214.286s-17.245 5.208-24.949 22.209l9.273-3.433.938 2.868 4.643 1.916v9.503s26.556-12.024 26.607-21.772c.013-2.765-6.584-15.753-16.512-11.291z" fill="#06F" stroke="#263238" stroke-linecap="round" stroke-linejoin="round"/><path d="M484.076 199.677c-6.739 10.815-2.276 24.048-2.276 24.048s-20.126 14.995-26.427 10.828a91.109 91.109 0 00-.296-12.86 86.125 86.125 0 00-1.646-10.905s2.134-1.286 5.285-2.996c10.044-5.646 30.504-16.345 25.36-8.115zM353.933 379.37a11.333 11.333 0 001.761-1.749c.393-.472.726-.99.991-1.543a15.37 15.37 0 012.044-2.778l.952-1.054c1.145-1.286 2.251-2.38 2.636-2.765l.142-.155c1.042-.72 1.903-1.35 2.572-1.942a14.883 14.883 0 004.321-5.079c1.389-2.572-2.572-9.272-4.72-11.831a7.59 7.59 0 00-2.43-1.814 12.277 12.277 0 00-3.858-1.196 14.708 14.708 0 00-4.18 0c-1.244.174-2.5.243-3.755.206-.849 0-1.698-.077-2.482-.154a44.524 44.524 0 01-4.874-.733 2.04 2.04 0 00-.261 2.618c.18.263.419.481.698.635a7.48 7.48 0 001.929.695c1.158.257 2.405.373 3.37.527a3.06 3.06 0 011.633.553c.156.169.294.355.411.553l.129.219c.228.442.351.93.36 1.427a2.013 2.013 0 01-.103.63.427.427 0 010 .167 3.421 3.421 0 01-.231.425 8.637 8.637 0 01-1.749 1.877 24.867 24.867 0 01-3.125 2.187l-1.286.694a33.69 33.69 0 01-3.125 1.53c-.759.322-1.582.682-2.379 1.068-.755.344-1.489.73-2.199 1.157-1.981 1.17-3.254 2.443-2.174 3.511 1.081 1.067 1.749.604 3.575-.244a49.656 49.656 0 012.328-1.029 36.593 36.593 0 015.08-1.556l.668-.155.489.772c.167 0 0 .244-.553.694a43.519 43.519 0 01-4.205 3.344 47.11 47.11 0 01-2.135 1.363c-.733.437-1.286.81-2.019 1.17-3.369 1.839-1.054 3.537.27 3.55a9.92 9.92 0 003.64-1.685l2.212-1.35 1.067-.592a209.836 209.836 0 003.858-2.122l.386-.218.977.72-.334.463a27.569 27.569 0 01-3.28 3.691c-.823.771-1.517 1.286-2.044 1.774-.991.862-1.428 1.363-1.068 2.302.36.939 1.839.785 3.344 0a13.115 13.115 0 003.202-2.379c.166-.174.321-.359.463-.553a13.364 13.364 0 012.688-2.443l.591-.437.965.154c-.155.321-.322.63-.489.913a28.408 28.408 0 01-1.762 2.752 24.68 24.68 0 00-1.517 2.186 1.287 1.287 0 00-.064 1.531c.501.784 1.581.308 2.649-.502z" fill="#fff" stroke="#263238" stroke-linecap="round" stroke-linejoin="round"/><path d="M361.572 350.306l18.274-6.211 4.72 11.805-15.419 5.118" fill="#fff"/><path d="M361.572 350.306l18.274-6.211 4.72 11.805-15.419 5.118" stroke="#263238" stroke-linecap="round" stroke-linejoin="round"/><path d="M381.248 341.369l-13.169 5.028 5.62 14.287 12.487-2.829-4.938-16.486z" fill="#06F" stroke="#263238" stroke-linecap="round" stroke-linejoin="round"/><path d="M501.412 258.396s-8.681-3.511-19.779 2.726c-6.79 3.858-40.65 56.7-39.403 54.282l-69.444 27.122 7.112 19.894s72.954-18.48 78.857-22.968c5.903-4.488 36.87-37.294 43.84-64.801" fill="#5A5A5A"/><path d="M501.412 258.396s-8.681-3.511-19.779 2.726c-6.79 3.858-40.65 56.7-39.403 54.282l-69.444 27.122 7.112 19.894s72.954-18.48 78.857-22.968c5.903-4.488 36.87-37.294 43.84-64.801M426.798 392.706s20.949 11.574 32.008 22.054M484.963 363.938c-.167.283-.848 11.574 5.942 16.294" stroke="#263238" stroke-linecap="round" stroke-linejoin="round"/><path d="M490.904 361.019s3.73 2.186 1.286 35.416c-2.443 33.23-3.51 80.053-3.51 80.053a19.17 19.17 0 004.372 7.794c3.292 3.395 56.198 55.028 56.198 55.028M442.808 403.804s-17.142 3.215-30.864 1.183M437.741 405.591s-67.579 55.967-81.146 60.712M361.572 463.796l-45.344 77.134M442.384 365.095s-2.868 16.422-4.656 19.136c-1.787 2.713 2.328 12.204 2.328 12.204M437.741 365.095s-2.121 9.98-2.803 12.359c-.682 2.379 2.803 3.318 2.803 3.318" stroke="#263238" stroke-linecap="round" stroke-linejoin="round"/><path d="M430.81 296.05s-2.302 14.249-1.62 21.026l1.62-21.026z" fill="#BFBFBF"/><path d="M430.81 296.05s-2.302 14.249-1.62 21.026M490.904 290.289s-11.921 8.809-22.582 8.474M442.229 315.404s4.836 3.704 7.716 1.672M484.899 318.838s-6.546 3.665-7.909 7.394" stroke="#263238" stroke-linecap="round" stroke-linejoin="round"/><path d="M473.557 210.158s-8.205 8.655-18.48 11.471a86.125 86.125 0 00-1.646-10.905s2.134-1.286 5.285-2.996l14.841 2.43z" fill="#263238"/><path d="M476.205 212.087c-8.294 4.604-17.695 6.224-26.35 2.199-3.073-1.415-4.565-19.869 0-36.163 7.343-26.324 28.627-27.198 45.769-11.574 9.066 8.282 3.498 24.743-7.857 36.51" fill="#fff"/><path d="M476.205 212.087c-8.294 4.604-17.695 6.224-26.35 2.199-3.073-1.415-4.565-19.869 0-36.163 7.343-26.324 28.627-27.198 45.769-11.574 9.066 8.282 3.498 24.743-7.857 36.51M463.089 179.757a10.29 10.29 0 0110.468 6.662M455.373 176.439s-1.106-3.189-3.858-3.253" stroke="#263238" stroke-linecap="round" stroke-linejoin="round"/><path d="M451.167 194.932s-3.279-3.408-2.25-5.337c1.028-1.929 2.07-.785 4.513-2.495a6.42 6.42 0 002.727-4.45" fill="#fff"/><path d="M451.167 194.932s-3.279-3.408-2.25-5.337c1.028-1.929 2.07-.785 4.513-2.495a6.42 6.42 0 002.727-4.45" stroke="#263238" stroke-linecap="round" stroke-linejoin="round"/><path d="M466.445 189.402c-.335.848-.991 1.389-1.466 1.209-.476-.181-.605-1.029-.271-1.891.335-.862.991-1.389 1.466-1.196.476.193.643 1.029.271 1.878zM454.305 183.396c-.334.862-.99 1.402-1.466 1.209-.476-.193-.605-1.029-.27-1.878.334-.848.99-1.389 1.466-1.209.476.181.604 1.094.27 1.878z" fill="#263238"/><path d="M449.984 198.996s6.765 3.112 11.806 3.176c0 0-2.572 5.453-6.97 4.964-4.398-.489-3.434-6.52-3.434-6.52" stroke="#263238" stroke-linecap="round" stroke-linejoin="round"/><path d="M481.311 171.038s-7.253-5.826-23.148-8.501c0 0 .077-9.722 3.665-13.232 3.588-3.511 6.533 3.729 6.533 3.729s9.002-2.495 24.987 8.475c15.985 10.969 8.32 36.355-11.883 47.144l-.115-4.295s.205-8.899-3.112-10.558c0 0 2.482-6.43-.206-11.175-2.688-4.746 3.279-11.587 3.279-11.587z" fill="#263238"/><path d="M478.199 196.925s5.8-7.034 10.558-4.552-5.8 17.579-10.558 14.802" fill="#fff"/><path d="M478.199 196.925s5.8-7.034 10.558-4.552-5.8 17.579-10.558 14.802" stroke="#263238" stroke-linecap="round" stroke-linejoin="round"/></svg>